<svg width="30" height="30" viewBox="0 0 30 30" fill="none" xmlns="http://www.w3.org/2000/svg">
<path d="M15.5 5.5V13L21 18.5" stroke="#3B1569" stroke-linecap="round" stroke-linejoin="round"/>
<circle cx="15" cy="15" r="14.5" stroke="#3B1569"/>
<circle cx="15" cy="15" r="11.5" stroke="#3B1569"/>
<circle cx="25" cy="7" r="4.5" stroke="#3B1569"/>
<circle cx="25" cy="7" r="4.5" fill="#F4FBFB" stroke="#3B1569"/>
<path d="M22.291 7.526C22.483 7.366 22.636 7.233 22.75 7.127C22.864 7.019 22.959 6.907 23.035 6.791C23.111 6.675 23.149 6.561 23.149 6.449C23.149 6.347 23.125 6.267 23.077 6.209C23.029 6.151 22.955 6.122 22.855 6.122C22.755 6.122 22.678 6.156 22.624 6.224C22.57 6.29 22.542 6.381 22.54 6.497H22.132C22.14 6.257 22.211 6.075 22.345 5.951C22.481 5.827 22.653 5.765 22.861 5.765C23.089 5.765 23.264 5.826 23.386 5.948C23.508 6.068 23.569 6.227 23.569 6.425C23.569 6.581 23.527 6.73 23.443 6.872C23.359 7.014 23.263 7.138 23.155 7.244C23.047 7.348 22.906 7.474 22.732 7.622H23.617V7.97H22.135V7.658L22.291 7.526ZM23.8337 7.574V7.244L24.8147 5.84H25.3037V7.208H25.5677V7.574H25.3037V8H24.8837V7.574H23.8337ZM24.9107 6.29L24.2957 7.208H24.9107V6.29ZM26.9781 5.159L26.1681 8.543H25.7571L26.5671 5.159H26.9781ZM28.626 6.131L27.828 8H27.402L28.206 6.179H27.18V5.819H28.626V6.131Z" fill="#3B1569"/>
</svg>
