<svg width="131" height="132" viewBox="0 0 131 132" fill="none" xmlns="http://www.w3.org/2000/svg">
<ellipse cx="65.501" cy="63.8919" rx="25.5" ry="24.8929" fill="#76AFFF"/>
<path d="M57.5127 62.1211L61.8934 66.9716" stroke="black" stroke-width="1.19279" stroke-linecap="round" stroke-linejoin="round"/>
<path d="M61.4541 58.5615L65.8348 63.412" stroke="black" stroke-width="1.19279" stroke-linecap="round" stroke-linejoin="round"/>
<path d="M51.5868 59.2164C49.1371 61.8875 44.3951 68.6839 45.0246 74.5003C47.1092 71.425 51.9973 64.7903 54.8723 62.8542" stroke="black" stroke-width="1.19279" stroke-linecap="round" stroke-linejoin="round"/>
<path d="M58.8624 52.645C61.7684 50.4791 69.0111 46.4515 74.7336 47.6683C71.4625 49.4299 64.3659 53.6192 62.1479 56.2828" stroke="black" stroke-width="1.19279" stroke-linecap="round" stroke-linejoin="round"/>
<rect x="51.0601" y="57.7431" width="8.61099" height="6.97702" transform="rotate(-42.0867 51.0601 57.7431)" stroke="black" stroke-width="1.19279"/>
<path d="M56.7698 84.2412L50.8467 89.5516V93.0238H53.9104L59.8335 87.5091" stroke="black" stroke-width="1.19279" stroke-linecap="round" stroke-linejoin="round"/>
<path d="M65.144 70.3525L61.6719 66.8804L65.5525 63.4082L69.0247 66.8804" stroke="black" stroke-width="1.19279" stroke-linecap="round" stroke-linejoin="round"/>
<path d="M73.5184 63.2041L62.6934 73.6206V77.297M67.7995 82.8117H71.2717L82.0967 71.9867" stroke="black" stroke-width="1.19279" stroke-linecap="round" stroke-linejoin="round"/>
<rect x="72.1696" y="60.7977" width="5.47522" height="17.2286" rx="2.67153" transform="rotate(-44.5468 72.1696 60.7977)" stroke="black" stroke-width="1.19279"/>
<rect x="58.57" y="78.8846" width="3.34215" height="10.2163" rx="1.67107" transform="rotate(-44.5468 58.57 78.8846)" stroke="black" stroke-width="1.19279"/>
<rect x="55.3668" y="81.9149" width="3.34215" height="10.2163" rx="1.67107" transform="rotate(-44.5468 55.3668 81.9149)" stroke="black" stroke-width="1.19279"/>
<rect x="0.66172" y="-0.249251" width="97.9687" height="96.8111" rx="4.5" transform="matrix(0.412469 -0.910972 0.910971 0.41247 0.712522 91.513)" stroke="#B8B8B8" stroke-dasharray="11.58 11.58"/>
</svg>
