<svg width="633" height="513" viewBox="0 0 633 513" fill="none" xmlns="http://www.w3.org/2000/svg">
<path d="M209.912 304.285L260.944 154.289H370.162L439.795 339.34L419.764 346.97H235.667L209.912 304.285Z" fill="#ACCAFC"/>
<path d="M487.727 455.791C504.102 462.468 546.438 475.917 584.783 476.299C588.281 476.273 596.325 475.886 600.522 474.551L615.784 512.467L430.256 511.036L417.14 490.29L413.563 461.752C416.807 465.186 421.274 463.501 423.102 462.229L420.241 469.145C427.108 473.533 432.641 468.112 434.549 464.853C439.509 470.385 445.518 464.614 447.903 461.037C449.238 465.043 452.752 463.501 454.341 462.229C456.329 458.414 460.637 451.26 461.972 453.168C464.643 469.765 480.255 461.832 487.727 455.791Z" fill="#412FA9" stroke="black" stroke-width="0.476935"/>
<path d="M583.829 301.9C566.087 276.718 529.22 278.531 513.005 282.584C509.189 339.34 448.857 325.032 455.295 289.977C411.799 287.497 395.996 316.447 393.532 331.232L446.472 371.533V383.933L417.379 361.756V428.527H421.194V443.789C422.784 440.212 426.87 431.913 430.495 427.334C434.119 422.756 442.975 423.678 446.949 424.711C474.993 430.244 491.86 427.97 496.55 425.665L548.536 414.696L549.252 410.642C557.646 415.22 572.145 411.437 578.345 408.972C586.135 406.588 603.288 403.965 609.584 412.549C615.88 421.134 625.561 422.009 629.615 421.373L629.854 423.28C631.38 421.563 631.92 419.068 632 418.034C629.615 384.649 614.83 353.409 607.438 338.147C601.524 325.938 589.235 308.895 583.829 301.9Z" fill="#412FA9" stroke="black" stroke-width="0.476935"/>
<path d="M448.619 290.693C439.319 342.202 528.028 344.11 519.682 282.347" stroke="black" stroke-width="0.953871" stroke-linecap="round" stroke-linejoin="round"/>
<path d="M436.695 325.509C431.687 356.749 421.481 424.569 420.718 445.935" stroke="black" stroke-width="0.953871" stroke-linecap="round" stroke-linejoin="round"/>
<path d="M535.183 322.647C537.885 349.753 544.34 405.777 548.537 413.027" stroke="black" stroke-width="0.953871" stroke-linecap="round" stroke-linejoin="round"/>
<path d="M546.391 403.726C552.193 404.124 566.47 403.679 577.153 398.719C587.836 393.759 600.205 394.744 605.054 395.857C612.128 400.706 627.136 409.736 630.57 407.065" stroke="black" stroke-width="0.953871" stroke-linecap="round" stroke-linejoin="round"/>
<path d="M425.964 241.806H433.356" stroke="black" stroke-width="0.476935"/>
<path d="M449.572 239.421C451.559 239.501 456.345 239.278 459.588 237.752" stroke="black" stroke-width="0.476935"/>
<path d="M500.604 203.89C517.011 212.857 504.579 244.986 496.312 259.93H494.881L489.396 243.237C490.112 242.999 491.781 241.663 492.735 238.229C494.452 231.171 492.655 228.134 491.542 227.498C490.112 227.021 486.868 226.878 485.342 230.121C483.625 232.792 484.627 237.275 485.342 239.183C483.816 238.992 481.686 240.375 480.811 241.091C478.713 238.038 477.711 232.188 477.473 229.644C465.836 230.026 461.496 222.172 460.78 218.198C454.294 225.447 444.087 222.331 439.795 219.867C435.789 223.683 429.7 224.16 427.156 223.921L426.441 226.306L425.964 230.598V247.529H424.771C415.996 242.76 415.233 234.573 415.948 231.075C406.791 220.392 411.974 211.998 415.71 209.136C407.602 189.343 435.979 175.035 449.095 180.997C470.271 166.308 480.017 177.738 482.242 185.29C496.741 182.428 500.525 196.498 500.604 203.89Z" fill="#020202" stroke="black" stroke-width="0.476935"/>
<path d="M417.14 490.528L430.733 511.036L219.45 511.275L232.327 489.336V359.848L324.376 289.023L417.14 361.279V490.528Z" fill="#FFB2B3" stroke="black" stroke-width="0.476935"/>
<path d="M233.997 488.382H416.902" stroke="black" stroke-width="0.953871"/>
<path d="M329.861 511.036V503.882H401.879V511.036" stroke="black" stroke-width="0.953871"/>
<path d="M394.248 503.406V496.49H338.446V503.406" stroke="black" stroke-width="0.953871"/>
<path d="M390.67 496.013V397.526H342.5V496.013" stroke="black" stroke-width="0.953871"/>
<path d="M384.947 348.163H265.236V372.964H384.947V348.163Z" stroke="black" stroke-width="0.953871"/>
<path d="M315.792 399.434H255.222V465.012H315.792V399.434Z" stroke="black" stroke-width="0.953871"/>
<path d="M209.912 304.285C203.616 300.088 189.483 299.992 183.204 300.469C183.585 309.436 181.296 321.057 180.104 325.747C192.504 326.701 203.712 328.688 207.766 329.562C208.72 321.931 209.594 309.531 209.912 304.285Z" fill="#4576FE" stroke="#4576FE" stroke-width="0.476935"/>
<path d="M235.905 344.586C229.228 318.259 215.795 307.067 209.912 304.762L200.851 358.894H217.782L235.905 344.586Z" fill="white" stroke="white" stroke-width="0.476935"/>
<path d="M200.135 359.224V348.878C198.036 350.996 194.65 352.327 193.219 352.728C193.219 356.577 190.676 357.7 189.404 357.78V359.224H182.011L98.7861 426.587L142.664 427.068V511.513H219.928L225.412 503.334L232.328 491.304V359.224L200.612 383.763V371.253L216.589 359.224H200.135Z" fill="#FF96AC" stroke="#FF96AC" stroke-width="0.476935"/>
<path d="M217.305 442.357H167.942V489.097L218.021 488.382L217.305 442.357Z" stroke="black" stroke-width="0.953871"/>
<path d="M143.141 426.142H232.328" stroke="black" stroke-width="0.953871"/>
<path d="M323.185 277.815L217.305 359.371L200.851 371.533V383.456L324.138 289.5L446.234 383.695V371.533L323.185 277.815Z" fill="#F6AAAD" stroke="black" stroke-width="0.476935"/>
<path d="M42 446C99.0415 434.554 139.851 387.655 153.126 365.636C159.04 369.643 172.314 363.425 177.957 359.609H182.011L99.2631 425.903L142.426 426.38V486.951C128.118 490.194 113.412 489.733 107.848 489.097C96.4015 486.872 71.8394 481.276 65.1623 476.697C58.4852 472.118 40.6001 466.681 32.4922 464.535L42 446Z" fill="#4576FE" stroke="black" stroke-width="0.48"/>
<path d="M64.9238 476.935C58.2467 472.357 40.6001 466.92 32.4922 464.773C27.3254 471.451 15.084 490.099 11.2686 511.275L142.664 510.321V487.189H141.472C127.164 490.433 112.458 489.972 106.894 489.336C95.4477 487.11 71.6009 481.514 64.9238 476.935Z" fill="#3A27A6" stroke="#3A27A6" stroke-width="0.476935"/>
<path d="M181.296 244.907C190.071 242.427 189.563 233.54 188.211 229.406C189.324 229.009 191.121 231.123 189.404 242.76C192.838 250.582 198.306 254.604 200.612 255.638C203.664 250.105 202.996 239.342 202.281 234.653C200.691 225.273 191.311 207.324 166.511 210.567C141.71 213.811 136.623 236.401 137.179 247.291C138.69 247.291 142.855 247.625 147.433 248.961C158.498 254.493 174.619 248.563 181.296 244.907Z" fill="#020202" stroke="#020202" stroke-width="0.476935"/>
<path d="M315.314 0V93.2409" stroke="black" stroke-width="1.43081"/>
<circle cx="315.314" cy="97.0563" r="3.10008" fill="black" stroke="black" stroke-width="0.476935"/>
<mask id="path-29-inside-1" fill="white">
<path d="M370.64 154.05C370.64 147.004 369.215 140.027 366.447 133.517C363.678 127.007 359.621 121.092 354.506 116.11C349.39 111.127 343.318 107.175 336.634 104.479C329.951 101.782 322.788 100.395 315.554 100.395C308.32 100.395 301.157 101.782 294.473 104.479C287.79 107.175 281.717 111.127 276.602 116.11C271.487 121.092 267.429 127.007 264.661 133.517C261.893 140.027 260.468 147.004 260.468 154.05L315.554 154.05H370.64Z"/>
</mask>
<path d="M370.64 154.05C370.64 147.004 369.215 140.027 366.447 133.517C363.678 127.007 359.621 121.092 354.506 116.11C349.39 111.127 343.318 107.175 336.634 104.479C329.951 101.782 322.788 100.395 315.554 100.395C308.32 100.395 301.157 101.782 294.473 104.479C287.79 107.175 281.717 111.127 276.602 116.11C271.487 121.092 267.429 127.007 264.661 133.517C261.893 140.027 260.468 147.004 260.468 154.05L315.554 154.05H370.64Z" fill="white" stroke="black" stroke-width="2.86161" mask="url(#path-29-inside-1)"/>
<path d="M336.3 154.289C336.3 156.418 335.763 158.527 334.721 160.494C333.678 162.461 332.15 164.249 330.223 165.755C328.297 167.261 326.01 168.455 323.493 169.27C320.976 170.085 318.278 170.504 315.553 170.504C312.829 170.504 310.131 170.085 307.614 169.27C305.097 168.455 302.81 167.261 300.883 165.755C298.957 164.249 297.429 162.461 296.386 160.494C295.343 158.527 294.807 156.418 294.807 154.289L315.553 154.289H336.3Z" fill="#FF82AC"/>
<ellipse cx="140.279" cy="177.42" rx="19.5544" ry="20.2698" fill="#020202"/>
<ellipse cx="154.588" cy="205.082" rx="28.6161" ry="29.8085" fill="#020202"/>
<path d="M181.057 244.712C189.833 242.232 189.324 233.345 187.973 229.212C189.085 228.814 190.882 230.928 189.165 242.566C192.599 250.387 198.068 254.41 200.373 255.443C191.979 278.18 179.388 284.124 174.142 284.254C174.221 286.241 175.906 292.505 182.011 301.662C183.156 313.108 180.103 322.806 178.434 326.224C175.652 325.985 168.848 325.842 163.887 327.178C160.072 330.039 153.236 336.796 150.295 339.816C118.245 341.724 119.135 309.452 123.586 293.077H129.786C141.614 282.775 143.3 269.071 142.664 263.507C131.599 258.928 134.238 250.659 136.94 247.097C138.451 247.097 142.616 247.431 147.195 248.766C158.259 254.298 174.38 248.369 181.057 244.712Z" fill="white" stroke="white" stroke-width="0.953871" stroke-linecap="round" stroke-linejoin="round"/>
<path d="M176.765 294.508C154.254 292.409 145.924 275.51 144.572 267.322C154.493 284.301 168.101 286.32 173.665 285.207L176.765 294.508Z" fill="#FFB2B3" stroke="#FFB2B3" stroke-width="0.953871" stroke-linecap="round" stroke-linejoin="round"/>
<path d="M151.487 275.43C161.423 285.605 185.111 295.843 200.373 255.399" stroke="#020202" stroke-width="0.953871" stroke-linecap="round" stroke-linejoin="round"/>
<path d="M168.896 273.522C169.77 274.635 172.377 276.813 175.811 276.623" stroke="#020202" stroke-width="0.953871" stroke-linecap="round" stroke-linejoin="round"/>
<path d="M168.18 268.515C169.61 270.581 174.189 274.524 181.057 273.761" stroke="#020202" stroke-width="1.43081" stroke-linecap="round" stroke-linejoin="round"/>
<path d="M169.849 265.653C168.816 266.209 166.511 267.656 165.557 268.991" stroke="#020202" stroke-width="0.953871" stroke-linecap="round" stroke-linejoin="round"/>
<path d="M138.371 249.438C139.404 250.153 141.233 252.061 140.279 253.968C139.325 255.876 140.199 257.625 140.756 258.261" stroke="black" stroke-width="0.953871" stroke-linecap="round" stroke-linejoin="round"/>
<path d="M173.188 248.483L177.003 251.107" stroke="#020202" stroke-width="0.953871" stroke-linecap="round" stroke-linejoin="round"/>
<path d="M187.019 253.253L195.842 253.73" stroke="#020202" stroke-width="0.953871" stroke-linecap="round" stroke-linejoin="round"/>
<ellipse cx="169.449" cy="255.23" rx="7.86943" ry="4.29242" transform="rotate(13.6799 169.449 255.23)" fill="#FFB2B3"/>
<ellipse cx="189.148" cy="260.396" rx="7.52695" ry="4.29242" transform="rotate(13.6799 189.148 260.396)" fill="#FFB2B3"/>
<ellipse cx="171.041" cy="254.445" rx="1.66927" ry="1.43081" fill="#020202"/>
<ellipse cx="189.403" cy="258.976" rx="1.43081" ry="1.66927" fill="#020202"/>
<path d="M183.441 251.106C183.044 251.742 182.297 254.159 182.488 258.737C182.678 263.316 182.726 265.891 182.726 266.607C182.646 267.64 180.961 268.992 174.856 266.13" stroke="#020202" stroke-width="0.953871" stroke-linecap="round" stroke-linejoin="round"/>
<path d="M186.78 256.83L192.742 258.022" stroke="#020202" stroke-width="0.476935" stroke-linecap="round" stroke-linejoin="round"/>
<path d="M168.896 252.061L174.38 253.491" stroke="#020202" stroke-width="0.476935" stroke-linecap="round" stroke-linejoin="round"/>
<path d="M150.169 339.817C118.119 341.725 119.01 309.452 123.461 293.077C122.788 291.328 116.243 288.022 95.4483 288.785C105.941 310.724 90.4404 349.594 85.4326 364.379L136.942 350.786C139.48 350.707 145.68 348.402 150.169 339.817Z" fill="#4576FE" stroke="#4576FE" stroke-width="0.476935"/>
<path d="M59.916 309.293C75.5595 293.458 89.9629 289.182 95.2092 289.023C106.274 307.91 93.1425 347.765 85.1935 365.333C99.1836 360.961 128.499 352.074 133.841 351.501C139.183 350.929 142.267 349.355 143.141 348.64C148.467 342.678 160.025 330.182 163.649 327.893C167.274 325.604 175.493 325.985 179.15 326.462C184.635 327.257 197.178 328.942 203.474 329.324C209.769 329.706 206.415 333.775 203.95 335.763C213.108 337.861 206.017 342.042 201.327 343.871C200.755 350.166 195.207 351.899 192.504 351.978C194.221 354.649 190.517 357.225 188.45 358.179L176.288 359.132C171.757 362.709 160.835 369.005 153.395 365.571C124.398 406.015 99.6606 423.757 90.9168 427.573C83.6832 431.15 64.2084 439.735 44.1771 445.458C24.1458 451.181 10.7122 441.642 6.49924 436.158C4.19405 432.422 -0.0824673 421.42 1.25295 407.303C2.58837 393.186 12.143 371.851 16.7534 362.948C24.6228 351.66 44.2725 325.127 59.916 309.293Z" fill="white" stroke="black" stroke-width="0.953871" stroke-linecap="round" stroke-linejoin="round"/>
<path d="M187.02 352.932C187.258 353.886 188.546 355.556 191.789 354.602C192.822 353.409 193.315 351.406 187.02 352.932Z" fill="#F185C3" stroke="#F384C3" stroke-width="0.953871" stroke-linecap="round" stroke-linejoin="round"/>
<path d="M194.889 347.686V345.063C202.138 343.346 200.93 346.097 199.42 347.686H194.889Z" fill="#F185C3" stroke="#F384C3" stroke-width="0.953871" stroke-linecap="round" stroke-linejoin="round"/>
<path d="M200.373 339.817V336.717C208.386 335.763 208.004 338.386 206.812 339.817H200.373Z" fill="#F185C3" stroke="#F384C3" stroke-width="0.953871" stroke-linecap="round" stroke-linejoin="round"/>
<path d="M199.658 332.424V329.562C207.861 329.562 207.051 331.629 205.62 332.663L199.658 332.424Z" fill="#F185C3" stroke="#F384C3" stroke-width="0.953871" stroke-linecap="round" stroke-linejoin="round"/>
<path d="M174.143 334.332L204.428 335.763" stroke="black" stroke-width="0.953871" stroke-linecap="round" stroke-linejoin="round"/>
<path d="M174.619 343.394L200.851 344.109" stroke="black" stroke-width="0.953871" stroke-linecap="round" stroke-linejoin="round"/>
<path d="M176.05 351.979H193.458" stroke="black" stroke-width="0.953871" stroke-linecap="round" stroke-linejoin="round"/>
<path d="M87.1012 359.609C73.9378 360.182 53.3977 377.097 45.1309 384.648C55.6234 377.59 76.2906 368.115 84.955 365.094L87.1012 359.609Z" fill="#FEB3B3" stroke="#FEB3B3" stroke-width="0.953871" stroke-linecap="round" stroke-linejoin="round"/>
<path d="M42.5078 386.795C51.7286 380.913 73.3178 368.337 85.9089 365.094" stroke="black" stroke-width="0.953871" stroke-linecap="round" stroke-linejoin="round"/>
<path d="M489.157 243.238C497.17 269.183 508.234 282.188 512.765 285.447C511.573 329.086 455.056 332.425 455.056 292.839C457.441 290.375 461.304 284.111 457.679 278.769C425.438 280.105 423.102 246.894 425.963 230.122L426.202 227.499L426.679 226.545V225.591L427.394 223.922H427.632C434.309 224.303 438.681 221.378 440.033 219.868C443.928 222.491 453.53 225.877 460.779 218.437C464.595 229.12 473.339 230.361 477.234 229.645C477.043 233.461 479.539 239.025 480.811 241.33C482.528 240.185 484.547 239.422 485.342 239.184C483.815 235.368 485.024 231.235 485.819 229.645C486.772 228.214 489.252 225.83 491.542 227.737C495.93 234.605 491.78 240.933 489.157 243.238Z" fill="white" stroke="black" stroke-width="0.476935"/>
<ellipse cx="455.474" cy="241.568" rx="8.58484" ry="8.1079" fill="#FF96AC"/>
<path d="M425.948 252.619C428.726 252.464 431.34 251.412 433.214 249.695C435.088 247.978 436.07 245.736 435.943 243.463C435.816 241.189 434.591 239.071 432.536 237.573C430.482 236.075 427.768 235.321 424.99 235.477L425.469 244.048L425.948 252.619Z" fill="#FF96AC"/>
<path d="M425.963 242.284H432.402" stroke="black" stroke-width="0.953871" stroke-linecap="round" stroke-linejoin="round"/>
<path d="M448.618 239.661C450.923 239.661 456.201 239.375 458.872 238.23" stroke="black" stroke-width="0.953871" stroke-linecap="round" stroke-linejoin="round"/>
<path d="M445.041 270.423C446.074 270.582 448.666 270.661 450.764 269.708" stroke="black" stroke-width="0.953871" stroke-linecap="round" stroke-linejoin="round"/>
<path d="M455.533 260.884C456.328 261.282 457.918 262.506 457.918 264.223" stroke="black" stroke-width="0.953871" stroke-linecap="round" stroke-linejoin="round"/>
<path d="M440.987 267.084C444.882 267.005 453.388 266.178 456.249 263.507" stroke="black" stroke-width="0.953871" stroke-linecap="round" stroke-linejoin="round"/>
<path d="M436.455 238.945L436.694 259.215C438.681 259.771 443.466 260.455 446.709 258.738" stroke="black" stroke-width="0.953871" stroke-linecap="round" stroke-linejoin="round"/>
<path d="M445.994 241.401C443.95 240.684 439.18 239.81 436.455 242.046" stroke="black" stroke-width="0.953871" stroke-linecap="round" stroke-linejoin="round"/>
<path d="M476.996 233.46L466.503 238.707" stroke="black" stroke-width="0.953871" stroke-linecap="round" stroke-linejoin="round"/>
<path d="M489.396 228.453C487.965 229.407 485.437 231.743 486.773 233.46C488.442 235.607 490.35 234.891 490.35 238.468" stroke="black" stroke-width="0.715403" stroke-linecap="round" stroke-linejoin="round"/>
<path d="M458.156 278.77C475.517 273.046 481.367 259.851 482.003 253.73C484.102 270.137 466.741 284.254 457.918 289.501C460.207 284.54 459.031 280.28 458.156 278.77Z" fill="#FF96AC" stroke="#FF96AC" stroke-width="0.476935"/>
<circle cx="456.249" cy="242.284" r="10.4926" stroke="black" stroke-width="1.43081"/>
<circle cx="426.201" cy="245.145" r="10.4926" stroke="black" stroke-width="1.43081"/>
<ellipse cx="454.103" cy="240.376" rx="1.43081" ry="1.19234" fill="#020202"/>
<circle cx="429.302" cy="243.476" r="1.43081" fill="#020202"/>
<path d="M415.947 245.145L420.478 244.668" stroke="black" stroke-width="0.953871" stroke-linecap="round" stroke-linejoin="round"/>
<circle cx="101.172" cy="295.461" r="2.38468" fill="#010203"/>
<circle cx="116.434" cy="297.369" r="2.38468" fill="#010203"/>
<circle cx="108.325" cy="305.954" r="2.38468" fill="#010203"/>
<circle cx="101.648" cy="317.4" r="2.38468" fill="#010203"/>
<circle cx="115.956" cy="315.493" r="2.38468" fill="#010203"/>
<circle cx="111.187" cy="325.032" r="2.38468" fill="#010203"/>
<circle cx="101.648" cy="333.139" r="2.38468" fill="#010203"/>
<circle cx="109.756" cy="340.77" r="2.38468" fill="#010203"/>
<circle cx="119.771" cy="336.001" r="2.38468" fill="#010203"/>
<circle cx="130.265" cy="343.155" r="2.38468" fill="#010203"/>
<circle cx="140.757" cy="348.401" r="2.38468" fill="#010203"/>
<circle cx="120.249" cy="348.878" r="2.38468" fill="#010203"/>
<circle cx="100.218" cy="346.017" r="2.38468" fill="#010203"/>
<circle cx="108.325" cy="355.078" r="2.38468" fill="#010203"/>
<circle cx="96.4023" cy="357.463" r="2.38468" fill="#010203"/>
<circle cx="71.6005" cy="447.603" r="2.38468" fill="#010203"/>
<circle cx="59.2011" cy="449.988" r="2.38468" fill="#010203"/>
<circle cx="44.4159" cy="452.373" r="2.38468" fill="#010203"/>
<circle cx="38.2157" cy="463.343" r="2.38468" fill="#010203"/>
<circle cx="51.5702" cy="460.958" r="2.38468" fill="#010203"/>
<circle cx="59.2011" cy="471.451" r="2.38468" fill="#010203"/>
<circle cx="64.9237" cy="460.958" r="2.38468" fill="#010203"/>
<circle cx="81.6171" cy="456.189" r="2.38468" fill="#010203"/>
<circle cx="89.7255" cy="445.219" r="2.38468" fill="#010203"/>
<circle cx="104.987" cy="442.834" r="2.38468" fill="#010203"/>
<circle cx="117.864" cy="449.035" r="2.38468" fill="#010203"/>
<circle cx="127.88" cy="444.265" r="2.38468" fill="#010203"/>
<circle cx="135.987" cy="438.065" r="2.38468" fill="#010203"/>
<circle cx="117.864" cy="435.68" r="2.38468" fill="#010203"/>
<circle cx="143.142" cy="387.51" r="2.38468" fill="#010203"/>
<circle cx="155.064" cy="375.11" r="2.38468" fill="#010203"/>
<circle cx="186.066" cy="322.647" r="2.38468" fill="#010203"/>
<circle cx="188.451" cy="308.338" r="2.38468" fill="#010203"/>
<circle cx="203.713" cy="308.338" r="2.38468" fill="#010203"/>
<circle cx="195.128" cy="315.493" r="2.38468" fill="#010203"/>
<circle cx="203.713" cy="322.647" r="2.38468" fill="#010203"/>
<circle cx="107.372" cy="430.911" r="2.38468" fill="#010203"/>
<circle cx="94.0175" cy="433.296" r="2.38468" fill="#010203"/>
<circle cx="104.033" cy="454.758" r="2.38468" fill="#010203"/>
<circle cx="76.8476" cy="465.727" r="2.38468" fill="#010203"/>
<circle cx="89.7255" cy="471.451" r="2.38468" fill="#010203"/>
<circle cx="72.078" cy="476.22" r="2.38468" fill="#010203"/>
<circle cx="84.956" cy="480.989" r="2.38468" fill="#010203"/>
<circle cx="104.987" cy="476.697" r="2.38468" fill="#010203"/>
<circle cx="112.141" cy="465.727" r="2.38468" fill="#010203"/>
<circle cx="122.156" cy="476.697" r="2.38468" fill="#010203"/>
<circle cx="112.141" cy="485.759" r="2.38468" fill="#010203"/>
<circle cx="135.033" cy="480.989" r="2.38468" fill="#010203"/>
<circle cx="132.649" cy="468.112" r="2.38468" fill="#010203"/>
<circle cx="137.418" cy="452.373" r="2.38468" fill="#010203"/>
<path d="M127.402 195.782C131.09 187.52 142.738 171.977 159.834 175.897" stroke="white" stroke-width="0.953871" stroke-linecap="round" stroke-linejoin="round"/>
<path d="M139.325 231.076C144.203 219.336 159.902 199.212 183.68 212.628" stroke="white" stroke-width="0.953871" stroke-linecap="round" stroke-linejoin="round"/>
<path d="M472.681 384.887C472.681 386.556 471.227 387.964 469.365 387.964C467.503 387.964 466.05 386.556 466.05 384.887C466.05 383.217 467.503 381.81 469.365 381.81C471.227 381.81 472.681 383.217 472.681 384.887Z" stroke="#5949BC"/>
<path d="M495.574 384.887C495.574 386.556 494.121 387.964 492.259 387.964C490.397 387.964 488.943 386.556 488.943 384.887C488.943 383.217 490.397 381.81 492.259 381.81C494.121 381.81 495.574 383.217 495.574 384.887Z" stroke="#5949BC"/>
<path d="M518.467 384.887C518.467 386.556 517.013 387.964 515.151 387.964C513.289 387.964 511.836 386.556 511.836 384.887C511.836 383.217 513.289 381.81 515.151 381.81C517.013 381.81 518.467 383.217 518.467 384.887Z" stroke="#5949BC"/>
<path d="M528.005 401.102C528.005 402.772 526.551 404.179 524.69 404.179C522.828 404.179 521.374 402.772 521.374 401.102C521.374 399.433 522.828 398.025 524.69 398.025C526.551 398.025 528.005 399.433 528.005 401.102Z" stroke="#5949BC"/>
<path d="M505.589 401.102C505.589 402.772 504.135 404.179 502.273 404.179C500.412 404.179 498.958 402.772 498.958 401.102C498.958 399.433 500.412 398.025 502.273 398.025C504.135 398.025 505.589 399.433 505.589 401.102Z" stroke="#5949BC"/>
<path d="M481.743 401.102C481.743 402.772 480.29 404.179 478.428 404.179C476.566 404.179 475.112 402.772 475.112 401.102C475.112 399.433 476.566 398.025 478.428 398.025C480.29 398.025 481.743 399.433 481.743 401.102Z" stroke="#5949BC"/>
<path d="M459.327 401.102C459.327 402.772 457.874 404.179 456.012 404.179C454.15 404.179 452.696 402.772 452.696 401.102C452.696 399.433 454.15 398.025 456.012 398.025C457.874 398.025 459.327 399.433 459.327 401.102Z" stroke="#5949BC"/>
<path d="M449.787 384.887C449.787 386.556 448.334 387.964 446.472 387.964C444.61 387.964 443.156 386.556 443.156 384.887C443.156 383.217 444.61 381.81 446.472 381.81C448.334 381.81 449.787 383.217 449.787 384.887Z" stroke="#5949BC"/>
<path d="M436.91 401.102C436.91 402.772 435.457 404.179 433.595 404.179C431.733 404.179 430.279 402.772 430.279 401.102C430.279 399.433 431.733 398.025 433.595 398.025C435.457 398.025 436.91 399.433 436.91 401.102Z" stroke="#5949BC"/>
<path d="M449.787 418.749C449.787 420.418 448.334 421.826 446.472 421.826C444.61 421.826 443.156 420.418 443.156 418.749C443.156 417.079 444.61 415.672 446.472 415.672C448.334 415.672 449.787 417.079 449.787 418.749Z" stroke="#5949BC"/>
<path d="M472.681 418.749C472.681 420.418 471.227 421.826 469.365 421.826C467.503 421.826 466.05 420.418 466.05 418.749C466.05 417.079 467.503 415.672 469.365 415.672C471.227 415.672 472.681 417.079 472.681 418.749Z" stroke="#5949BC"/>
<path d="M495.574 418.749C495.574 420.418 494.121 421.826 492.259 421.826C490.397 421.826 488.943 420.418 488.943 418.749C488.943 417.079 490.397 415.672 492.259 415.672C494.121 415.672 495.574 417.079 495.574 418.749Z" stroke="#5949BC"/>
<path d="M528.005 366.763C528.005 368.433 526.551 369.84 524.69 369.84C522.828 369.84 521.374 368.433 521.374 366.763C521.374 365.094 522.828 363.686 524.69 363.686C526.551 363.686 528.005 365.094 528.005 366.763Z" stroke="#5949BC"/>
<path d="M505.589 366.763C505.589 368.433 504.135 369.84 502.273 369.84C500.412 369.84 498.958 368.433 498.958 366.763C498.958 365.094 500.412 363.686 502.273 363.686C504.135 363.686 505.589 365.094 505.589 366.763Z" stroke="#5949BC"/>
<path d="M481.743 366.763C481.743 368.433 480.29 369.84 478.428 369.84C476.566 369.84 475.112 368.433 475.112 366.763C475.112 365.094 476.566 363.686 478.428 363.686C480.29 363.686 481.743 365.094 481.743 366.763Z" stroke="#5949BC"/>
<path d="M459.327 366.763C459.327 368.433 457.874 369.84 456.012 369.84C454.15 369.84 452.696 368.433 452.696 366.763C452.696 365.094 454.15 363.686 456.012 363.686C457.874 363.686 459.327 365.094 459.327 366.763Z" stroke="#5949BC"/>
<path d="M449.787 351.978C449.787 353.647 448.334 355.055 446.472 355.055C444.61 355.055 443.156 353.647 443.156 351.978C443.156 350.308 444.61 348.901 446.472 348.901C448.334 348.901 449.787 350.308 449.787 351.978Z" stroke="#5949BC"/>
<path d="M472.681 351.978C472.681 353.647 471.227 355.055 469.365 355.055C467.503 355.055 466.05 353.647 466.05 351.978C466.05 350.308 467.503 348.901 469.365 348.901C471.227 348.901 472.681 350.308 472.681 351.978Z" stroke="#5949BC"/>
<path d="M495.574 351.978C495.574 353.647 494.121 355.055 492.259 355.055C490.397 355.055 488.943 353.647 488.943 351.978C488.943 350.308 490.397 348.901 492.259 348.901C494.121 348.901 495.574 350.308 495.574 351.978Z" stroke="#5949BC"/>
<path d="M519.42 351.978C519.42 353.647 517.967 355.055 516.105 355.055C514.243 355.055 512.789 353.647 512.789 351.978C512.789 350.308 514.243 348.901 516.105 348.901C517.967 348.901 519.42 350.308 519.42 351.978Z" stroke="#5949BC"/>
<path d="M528.005 334.331C528.005 336.001 526.551 337.408 524.69 337.408C522.828 337.408 521.374 336.001 521.374 334.331C521.374 332.662 522.828 331.254 524.69 331.254C526.551 331.254 528.005 332.662 528.005 334.331Z" stroke="#5949BC"/>
<path d="M505.589 334.331C505.589 336.001 504.135 337.408 502.273 337.408C500.412 337.408 498.958 336.001 498.958 334.331C498.958 332.662 500.412 331.254 502.273 331.254C504.135 331.254 505.589 332.662 505.589 334.331Z" stroke="#5949BC"/>
<path d="M481.743 334.331C481.743 336.001 480.29 337.408 478.428 337.408C476.566 337.408 475.112 336.001 475.112 334.331C475.112 332.662 476.566 331.254 478.428 331.254C480.29 331.254 481.743 332.662 481.743 334.331Z" stroke="#5949BC"/>
<path d="M459.327 334.331C459.327 336.001 457.874 337.408 456.012 337.408C454.15 337.408 452.696 336.001 452.696 334.331C452.696 332.662 454.15 331.254 456.012 331.254C457.874 331.254 459.327 332.662 459.327 334.331Z" stroke="#5949BC"/>
<path d="M443.131 337.577C443.131 339.246 441.677 340.654 439.815 340.654C437.954 340.654 436.5 339.246 436.5 337.577C436.5 335.908 437.954 334.5 439.815 334.5C441.677 334.5 443.131 335.908 443.131 337.577Z" stroke="#5949BC"/>
<path d="M412.131 317.577C412.131 319.246 410.677 320.654 408.815 320.654C406.954 320.654 405.5 319.246 405.5 317.577C405.5 315.908 406.954 314.5 408.815 314.5C410.677 314.5 412.131 315.908 412.131 317.577Z" stroke="#5949BC"/>
<path d="M429.131 324.577C429.131 326.246 427.677 327.654 425.815 327.654C423.954 327.654 422.5 326.246 422.5 324.577C422.5 322.908 423.954 321.5 425.815 321.5C427.677 321.5 429.131 322.908 429.131 324.577Z" stroke="#5949BC"/>
<path d="M435.003 300.469C435.003 302.138 433.55 303.546 431.688 303.546C429.826 303.546 428.372 302.138 428.372 300.469C428.372 298.799 429.826 297.392 431.688 297.392C433.55 297.392 435.003 298.799 435.003 300.469Z" stroke="#5949BC"/>
<path d="M412.587 334.331C412.587 336.001 411.134 337.408 409.272 337.408C407.41 337.408 405.956 336.001 405.956 334.331C405.956 332.662 407.41 331.254 409.272 331.254C411.134 331.254 412.587 332.662 412.587 334.331Z" stroke="#5949BC"/>
<path d="M449.787 317.639C449.787 319.308 448.334 320.716 446.472 320.716C444.61 320.716 443.156 319.308 443.156 317.639C443.156 315.969 444.61 314.562 446.472 314.562C448.334 314.562 449.787 315.969 449.787 317.639Z" stroke="#5949BC"/>
<path d="M519.42 317.639C519.42 319.308 517.967 320.716 516.105 320.716C514.243 320.716 512.789 319.308 512.789 317.639C512.789 315.969 514.243 314.562 516.105 314.562C517.967 314.562 519.42 315.969 519.42 317.639Z" stroke="#5949BC"/>
<path d="M531.82 299.992C531.82 301.662 530.367 303.069 528.505 303.069C526.643 303.069 525.189 301.662 525.189 299.992C525.189 298.323 526.643 296.915 528.505 296.915C530.367 296.915 531.82 298.323 531.82 299.992Z" stroke="#5949BC"/>
<path d="M542.314 317.639C542.314 319.308 540.86 320.716 538.998 320.716C537.136 320.716 535.683 319.308 535.683 317.639C535.683 315.969 537.136 314.562 538.998 314.562C540.86 314.562 542.314 315.969 542.314 317.639Z" stroke="#5949BC"/>
<path d="M553.283 299.992C553.283 301.662 551.83 303.069 549.968 303.069C548.106 303.069 546.652 301.662 546.652 299.992C546.652 298.323 548.106 296.915 549.968 296.915C551.83 296.915 553.283 298.323 553.283 299.992Z" stroke="#5949BC"/>
<path d="M541.359 283.776C541.359 285.446 539.906 286.853 538.044 286.853C536.182 286.853 534.729 285.446 534.729 283.776C534.729 282.107 536.182 280.699 538.044 280.699C539.906 280.699 541.359 282.107 541.359 283.776Z" stroke="#5949BC"/>
<path d="M565.206 316.685C565.206 318.354 563.753 319.762 561.891 319.762C560.029 319.762 558.575 318.354 558.575 316.685C558.575 315.015 560.029 313.608 561.891 313.608C563.753 313.608 565.206 315.015 565.206 316.685Z" stroke="#5949BC"/>
<path d="M576.176 300.946C576.176 302.615 574.722 304.023 572.86 304.023C570.998 304.023 569.545 302.615 569.545 300.946C569.545 299.276 570.998 297.869 572.86 297.869C574.722 297.869 576.176 299.276 576.176 300.946Z" stroke="#5949BC"/>
<path d="M587.146 316.685C587.146 318.354 585.692 319.762 583.83 319.762C581.968 319.762 580.515 318.354 580.515 316.685C580.515 315.015 581.968 313.608 583.83 313.608C585.692 313.608 587.146 315.015 587.146 316.685Z" stroke="#5949BC"/>
<path d="M550.422 333.377C550.422 335.047 548.968 336.454 547.106 336.454C545.245 336.454 543.791 335.047 543.791 333.377C543.791 331.708 545.245 330.3 547.106 330.3C548.968 330.3 550.422 331.708 550.422 333.377Z" stroke="#5949BC"/>
<path d="M574.268 333.377C574.268 335.047 572.815 336.454 570.953 336.454C569.091 336.454 567.637 335.047 567.637 333.377C567.637 331.708 569.091 330.3 570.953 330.3C572.815 330.3 574.268 331.708 574.268 333.377Z" stroke="#5949BC"/>
<path d="M595.73 333.377C595.73 335.047 594.277 336.454 592.415 336.454C590.553 336.454 589.099 335.047 589.099 333.377C589.099 331.708 590.553 330.3 592.415 330.3C594.277 330.3 595.73 331.708 595.73 333.377Z" stroke="#5949BC"/>
<path d="M587.146 351.978C587.146 353.647 585.692 355.055 583.83 355.055C581.968 355.055 580.515 353.647 580.515 351.978C580.515 350.308 581.968 348.901 583.83 348.901C585.692 348.901 587.146 350.308 587.146 351.978Z" stroke="#5949BC"/>
<path d="M564.253 351.978C564.253 353.647 562.799 355.055 560.937 355.055C559.075 355.055 557.622 353.647 557.622 351.978C557.622 350.308 559.075 348.901 560.937 348.901C562.799 348.901 564.253 350.308 564.253 351.978Z" stroke="#5949BC"/>
<path d="M538.131 385.577C538.131 387.246 536.677 388.654 534.815 388.654C532.954 388.654 531.5 387.246 531.5 385.577C531.5 383.908 532.954 382.5 534.815 382.5C536.677 382.5 538.131 383.908 538.131 385.577Z" stroke="#5949BC"/>
<path d="M549.131 349.577C549.131 351.246 547.677 352.654 545.815 352.654C543.954 352.654 542.5 351.246 542.5 349.577C542.5 347.908 543.954 346.5 545.815 346.5C547.677 346.5 549.131 347.908 549.131 349.577Z" stroke="#5949BC"/>
<path d="M551.853 366.763C551.853 368.433 550.399 369.84 548.537 369.84C546.675 369.84 545.222 368.433 545.222 366.763C545.222 365.094 546.675 363.686 548.537 363.686C550.399 363.686 551.853 365.094 551.853 366.763Z" stroke="#5949BC"/>
<path d="M574.268 366.763C574.268 368.433 572.815 369.84 570.953 369.84C569.091 369.84 567.637 368.433 567.637 366.763C567.637 365.094 569.091 363.686 570.953 363.686C572.815 363.686 574.268 365.094 574.268 366.763Z" stroke="#5949BC"/>
<path d="M594.776 366.763C594.776 368.433 593.323 369.84 591.461 369.84C589.599 369.84 588.146 368.433 588.146 366.763C588.146 365.094 589.599 363.686 591.461 363.686C593.323 363.686 594.776 365.094 594.776 366.763Z" stroke="#5949BC"/>
<path d="M615.285 366.763C615.285 368.433 613.831 369.84 611.969 369.84C610.107 369.84 608.654 368.433 608.654 366.763C608.654 365.094 610.107 363.686 611.969 363.686C613.831 363.686 615.285 365.094 615.285 366.763Z" stroke="#5949BC"/>
<path d="M607.653 351.978C607.653 353.647 606.2 355.055 604.338 355.055C602.476 355.055 601.022 353.647 601.022 351.978C601.022 350.308 602.476 348.901 604.338 348.901C606.2 348.901 607.653 350.308 607.653 351.978Z" stroke="#5949BC"/>
<path d="M587.146 384.887C587.146 386.556 585.692 387.964 583.83 387.964C581.968 387.964 580.515 386.556 580.515 384.887C580.515 383.217 581.968 381.81 583.83 381.81C585.692 381.81 587.146 383.217 587.146 384.887Z" stroke="#5949BC"/>
<path d="M565.206 384.887C565.206 386.556 563.753 387.964 561.891 387.964C560.029 387.964 558.575 386.556 558.575 384.887C558.575 383.217 560.029 381.81 561.891 381.81C563.753 381.81 565.206 383.217 565.206 384.887Z" stroke="#5949BC"/>
<path d="M607.653 384.887C607.653 386.556 606.2 387.964 604.338 387.964C602.476 387.964 601.022 386.556 601.022 384.887C601.022 383.217 602.476 381.81 604.338 381.81C606.2 381.81 607.653 383.217 607.653 384.887Z" stroke="#5949BC"/>
<path d="M619.131 409.577C619.131 411.246 617.677 412.654 615.815 412.654C613.954 412.654 612.5 411.246 612.5 409.577C612.5 407.908 613.954 406.5 615.815 406.5C617.677 406.5 619.131 407.908 619.131 409.577Z" stroke="#5949BC"/>
<path d="M595.73 400.149C595.73 401.818 594.277 403.226 592.415 403.226C590.553 403.226 589.099 401.818 589.099 400.149C589.099 398.479 590.553 397.072 592.415 397.072C594.277 397.072 595.73 398.479 595.73 400.149Z" stroke="#5949BC"/>
<path d="M574.268 406.487C574.268 408.157 572.815 409.564 570.953 409.564C569.091 409.564 567.637 408.157 567.637 406.487C567.637 404.818 569.091 403.41 570.953 403.41C572.815 403.41 574.268 404.818 574.268 406.487Z" stroke="#5949BC"/>
<path d="M541.836 474.55C541.836 476.22 540.383 477.627 538.521 477.627C536.659 477.627 535.205 476.22 535.205 474.55C535.205 472.881 536.659 471.473 538.521 471.473C540.383 471.473 541.836 472.881 541.836 474.55Z" stroke="#5949BC"/>
<path d="M518.467 474.55C518.467 476.22 517.013 477.627 515.151 477.627C513.289 477.627 511.836 476.22 511.836 474.55C511.836 472.881 513.289 471.473 515.151 471.473C517.013 471.473 518.467 472.881 518.467 474.55Z" stroke="#5949BC"/>
<path d="M495.097 474.55C495.097 476.22 493.643 477.627 491.781 477.627C489.919 477.627 488.466 476.22 488.466 474.55C488.466 472.881 489.919 471.473 491.781 471.473C493.643 471.473 495.097 472.881 495.097 474.55Z" stroke="#5949BC"/>
<path d="M505.589 491.721C505.589 493.39 504.135 494.798 502.273 494.798C500.412 494.798 498.958 493.39 498.958 491.721C498.958 490.051 500.412 488.644 502.273 488.644C504.135 488.644 505.589 490.051 505.589 491.721Z" stroke="#5949BC"/>
<path d="M528.005 491.721C528.005 493.39 526.551 494.798 524.69 494.798C522.828 494.798 521.374 493.39 521.374 491.721C521.374 490.051 522.828 488.644 524.69 488.644C526.551 488.644 528.005 490.051 528.005 491.721Z" stroke="#5949BC"/>
<path d="M550.422 491.721C550.422 493.39 548.968 494.798 547.106 494.798C545.245 494.798 543.791 493.39 543.791 491.721C543.791 490.051 545.245 488.644 547.106 488.644C548.968 488.644 550.422 490.051 550.422 491.721Z" stroke="#5949BC"/>
<path d="M572.838 491.721C572.838 493.39 571.384 494.798 569.522 494.798C567.66 494.798 566.207 493.39 566.207 491.721C566.207 490.051 567.66 488.644 569.522 488.644C571.384 488.644 572.838 490.051 572.838 491.721Z" stroke="#5949BC"/>
<path d="M595.253 491.721C595.253 493.39 593.8 494.798 591.938 494.798C590.076 494.798 588.622 493.39 588.622 491.721C588.622 490.051 590.076 488.644 591.938 488.644C593.8 488.644 595.253 490.051 595.253 491.721Z" stroke="#5949BC"/>
<path d="M474.112 474.55C474.112 476.22 472.659 477.627 470.797 477.627C468.935 477.627 467.481 476.22 467.481 474.55C467.481 472.881 468.935 471.473 470.797 471.473C472.659 471.473 474.112 472.881 474.112 474.55Z" stroke="#5949BC"/>
<path d="M449.787 474.55C449.787 476.22 448.334 477.627 446.472 477.627C444.61 477.627 443.156 476.22 443.156 474.55C443.156 472.881 444.61 471.473 446.472 471.473C448.334 471.473 449.787 472.881 449.787 474.55Z" stroke="#5949BC"/>
<path d="M425.464 474.55C425.464 476.22 424.01 477.627 422.148 477.627C420.287 477.627 418.833 476.22 418.833 474.55C418.833 472.881 420.287 471.473 422.148 471.473C424.01 471.473 425.464 472.881 425.464 474.55Z" stroke="#5949BC"/>
<path d="M436.91 491.721C436.91 493.39 435.457 494.798 433.595 494.798C431.733 494.798 430.279 493.39 430.279 491.721C430.279 490.051 431.733 488.644 433.595 488.644C435.457 488.644 436.91 490.051 436.91 491.721Z" stroke="#5949BC"/>
<path d="M459.327 491.721C459.327 493.39 457.874 494.798 456.012 494.798C454.15 494.798 452.696 493.39 452.696 491.721C452.696 490.051 454.15 488.644 456.012 488.644C457.874 488.644 459.327 490.051 459.327 491.721Z" stroke="#5949BC"/>
<path d="M553.853 399.102C553.853 400.772 552.399 402.179 550.537 402.179C548.675 402.179 547.222 400.772 547.222 399.102C547.222 397.433 548.675 396.025 550.537 396.025C552.399 396.025 553.853 397.433 553.853 399.102Z" stroke="#5949BC"/>
<path d="M585.022 476.22C623.367 476.601 630.251 439.972 628.9 421.61C622.413 423.9 615.069 417.954 612.207 414.695C608.709 410.244 597.947 402.628 582.875 407.779C564.18 414.838 552.352 412.946 548.774 411.118L549.49 414.695L502.273 424.234C481.05 433.295 444.087 424.711 439.318 424.234C435.502 423.852 431.846 425.982 430.494 427.095C425.01 437.27 413.993 458.43 413.802 461.673C417.045 465.107 421.512 463.422 423.34 462.15L420.479 469.066C427.347 473.453 432.879 468.032 434.787 464.773C439.747 470.306 445.756 464.535 448.141 460.958C449.477 464.964 452.99 463.422 454.58 462.15C456.567 458.334 460.875 451.18 462.211 453.088C464.882 469.686 480.493 461.753 487.965 455.711C504.34 462.388 546.676 475.838 585.022 476.22Z" fill="white" stroke="black" stroke-width="0.953871" stroke-linecap="round" stroke-linejoin="round"/>
<path d="M447.903 461.196L452.673 448.081" stroke="black" stroke-width="0.953871" stroke-linecap="round" stroke-linejoin="round"/>
<path d="M452.91 459.288C451.575 457.762 450.128 457.698 449.572 457.857C446.519 463.771 450.049 463.66 452.195 462.865L452.91 459.288Z" fill="#F999AE" stroke="black" stroke-width="0.476935"/>
<path d="M437.887 458.335C439.875 458.414 443.086 460.147 440.034 466.443C437.172 467.317 432.736 466.92 437.887 458.335Z" fill="#F999AE" stroke="black" stroke-width="0.476935"/>
<path d="M420.718 468.351L424.056 460.958C429.064 460.958 426.918 465.489 425.01 470.258C421.958 471.021 420.877 469.304 420.718 468.351Z" fill="#F999AE" stroke="black" stroke-width="0.476935"/>
<path d="M420.957 455.95L417.618 454.281C411.323 463.247 415.631 463.899 418.572 463.104L420.957 455.95Z" fill="#F999AE" stroke="black" stroke-width="0.476935"/>
<path d="M423.103 462.627L433.834 441.403" stroke="black" stroke-width="0.953871" stroke-linecap="round" stroke-linejoin="round"/>
<path d="M434.787 465.012L443.849 444.98" stroke="black" stroke-width="0.953871" stroke-linecap="round" stroke-linejoin="round"/>
<path d="M61.257 477.174C56.6466 480.989 44.9458 488.43 35.0255 487.666C32.0049 491.005 26.2499 500.162 27.3946 510.082" stroke="black" stroke-width="0.953871" stroke-linecap="round" stroke-linejoin="round"/>
<circle cx="383.04" cy="448.558" r="1.55004" stroke="black" stroke-width="0.715403"/>
</svg>
