<svg width="135" height="135" viewBox="0 0 135 135" fill="none" xmlns="http://www.w3.org/2000/svg">
<rect x="0.685014" y="50.6138" width="97.9686" height="96.8112" rx="4.5" transform="rotate(-30.64 0.685014 50.6138)" stroke="#B8B8B8" stroke-dasharray="11.58 11.58"/>
<ellipse cx="66.5038" cy="67.3854" rx="25.4023" ry="24.7975" fill="#76AFFF"/>
<path d="M60.4803 35.037C61.1947 39.3746 60.5583 50.8645 52.2979 62.1228C44.0374 73.3812 48.813 89.2177 52.2334 95.7286" stroke="black" stroke-width="1.7597" stroke-linecap="round" stroke-linejoin="round"/>
<path d="M72.5148 95.7686C71.8004 91.431 72.4368 79.9412 80.6973 68.6828C88.9577 57.4244 84.1821 41.588 80.7617 35.0771" stroke="black" stroke-width="1.7597" stroke-linecap="round" stroke-linejoin="round"/>
<path d="M61.5527 42.0859L82.1498 42.1255" stroke="black" stroke-width="1.7597" stroke-linecap="round" stroke-linejoin="round"/>
<path d="M58.2793 52.3799L85.3807 52.4319" stroke="black" stroke-width="1.7597" stroke-linecap="round" stroke-linejoin="round"/>
<path d="M51.7529 63.208L82.1065 63.2662" stroke="black" stroke-width="1.7597" stroke-linecap="round" stroke-linejoin="round"/>
<path d="M49.5664 74.0439L76.6678 74.0959" stroke="black" stroke-width="1.7597" stroke-linecap="round" stroke-linejoin="round"/>
<path d="M49.543 85.9688L72.3082 86.0124" stroke="black" stroke-width="1.7597" stroke-linecap="round" stroke-linejoin="round"/>
</svg>
