<svg width="117" height="117" viewBox="0 0 117 117" fill="none" xmlns="http://www.w3.org/2000/svg">
<rect x="0.755637" y="20.7687" width="97.9687" height="96.8111" rx="4.5" transform="rotate(-11.64 0.755637 20.7687)" stroke="#B8B8B8" stroke-dasharray="11.58 11.58"/>
<ellipse cx="51" cy="50.5" rx="21" ry="20.5" fill="#76AFFF"/>
<path d="M74.9377 41.6719L79.0002 49.1197H74.2606V55.2134L70.1982 54.5364V59.2759H66.1357V64.0155H62.0732V73.4945" stroke="black" stroke-width="1.35416"/>
<path d="M52.5947 62.6616L74.9383 40.9951" stroke="black" stroke-width="1.35416"/>
<path d="M64.1035 64.0159L69.5201 70.1096C71.5514 72.1409 76.2909 71.4638 73.5826 66.7242L67.4889 59.2764" stroke="black" stroke-width="1.35416"/>
<path d="M65.4589 39.6405C57.334 38.5572 54.8514 44.6057 54.6257 47.7654L60.7189 53.859L57.3335 57.2444L51.2398 51.1507C49.0731 50.0674 47.1773 50.6993 46.5003 51.1507L45.8237 57.9215C38.2404 55.7548 36.796 51.6021 37.0217 49.7965C38.8272 50.2479 42.5737 50.7445 43.1154 49.1197C46.907 33.4114 59.5909 36.2551 65.4589 39.6405Z" stroke="black" stroke-width="1.35416"/>
<rect x="50.8859" y="61.2148" width="16.8924" height="6.77078" rx="0.677078" transform="rotate(46.8623 50.8859 61.2148)" stroke="black" stroke-width="1.35416"/>
</svg>
