<svg width="285" height="287" viewBox="0 0 285 287" fill="none" xmlns="http://www.w3.org/2000/svg">
<path d="M86.4642 145.318L112.569 154.179C125.215 167.016 146.411 161.296 155.432 157.065L158.313 155.377V152.503C188.25 146.516 175.557 152.503 188.968 149.15C199.315 152.216 213.078 154.579 218.666 155.377L223.695 149.15L222.498 154.179L226.569 152.503C234.473 116.579 228.246 119.692 218.666 107.717C209.086 95.7431 205.494 79.457 205.733 68.2007C205.973 56.9444 200.943 53.8309 193.998 41.8562C187.052 29.8814 187.292 24.373 183.46 19.1039C155.487 -8.86924 121.191 1.54084 107.54 10.2425L93.4096 20.5408C89.1785 26.9274 79.6146 41.2333 75.2079 47.3644C75.2079 52.5375 68.6617 59.419 65.3886 62.2131C59.6407 67.8013 47.3785 79.84 44.313 83.2887C41.2474 86.7375 40.6407 97.4988 40.7205 102.448C42.2373 96.5408 45.8457 85.061 48.1449 86.4022C45.2709 87.5996 43.355 105.801 42.876 108.915C42.4928 111.406 51.1785 117.137 55.5692 119.692C57.4054 118.654 60.7903 116.914 59.6407 118.255C58.2037 119.931 58.2037 124.482 62.2752 127.835C64.7659 135.499 79.439 142.683 86.4642 145.318Z" fill="#090706"/>
<path d="M123.985 80.1864H102.909C99.6519 93.5981 102.989 107.808 105.064 113.237C106.102 114.594 108.609 118.841 110.333 124.972C110.142 130.912 115.363 137.027 117.997 139.342C122.707 143.653 136.391 149.688 153.443 139.342C170.495 128.996 180.346 102.938 183.14 91.2032L173.56 89.7662L171.644 86.8922L169.249 89.7662C165.609 89.9578 154.001 86.6528 148.653 84.9763L146.018 64.6191L140.989 81.8628L126.619 80.1864L125.422 77.0729L123.985 80.1864Z" fill="#9A6245"/>
<path d="M129.807 132.396C131.483 131.758 135.65 131.103 138.907 133.594" stroke="black" stroke-width="0.478992"/>
<path d="M130.046 118.984C127.556 119.751 124.698 118.984 123.58 118.505C126.135 122.497 132.346 130.384 136.752 130.001C141.159 129.618 146.412 126.489 148.488 124.972C148.967 124.972 149.829 124.828 149.446 124.253C147.53 124.972 145.135 122.098 144.416 121.379C143.698 120.661 138.189 118.745 137.95 119.703C137.71 120.661 136.992 120.661 136.752 120.182C136.273 118.505 133.16 118.026 130.046 118.984Z" fill="#6F3737"/>
<path d="M126.214 119.943C129.567 121.46 138.332 124.35 146.571 123.775C143.458 125.611 135.027 127.416 126.214 119.943Z" fill="white"/>
<path d="M137.95 112.519C136.992 112.328 135.954 111.162 135.555 110.604C135.076 110.125 134.597 110.364 134.597 111.082C134.597 112.059 136.113 112.759 136.992 112.998C137.71 112.919 138.908 112.711 137.95 112.519Z" fill="#090706" stroke="black" stroke-width="0.478992"/>
<path d="M142.449 113.573C143.334 113.572 144.414 112.847 144.844 112.485C145.335 112.195 145.735 112.448 145.644 112.991C145.521 113.729 144.069 114.03 143.25 114.079C142.614 113.911 141.564 113.575 142.449 113.573Z" fill="#090706" stroke="black" stroke-width="0.478992"/>
<path d="M145.853 96.2324C145.454 98.787 144.895 105.094 145.853 109.884" stroke="black" stroke-width="0.478992"/>
<path d="M109.45 79.4665C113.043 73.9586 127.173 68.6895 134.358 81.1429" stroke="#FCC32E" stroke-width="0.478992"/>
<path d="M154.052 86.1662C158.524 81.3449 171.718 78.7492 177.706 90.0045" stroke="#FCC32E" stroke-width="0.478992"/>
<path d="M108.731 80.667C97.4743 110.843 145.134 110.843 135.075 81.625" stroke="#FCC32E" stroke-width="0.478992"/>
<path d="M153.038 87.3711C136.992 118.027 188.061 120.182 178.002 90.9635" stroke="#FCC32E" stroke-width="0.478992"/>
<path d="M136.273 92.8798C139.387 90.7243 146.284 88.1857 148.967 95.2747" stroke="#FCC32E" stroke-width="0.478992"/>
<path d="M131.005 90.7239C125.832 84.5928 119.11 86.0937 116.395 87.6105C114.24 88.5685 114.16 83.9382 114.479 83.5391H115.437V84.018C115.677 83.9383 117.258 83.8266 121.664 84.018C127.173 83.5391 130.526 88.808 131.244 90.0054C131.819 90.9634 131.324 90.8836 131.005 90.7239Z" fill="#090706"/>
<path d="M155.7 96.604C163.218 92.4231 168.721 96.6794 170.533 99.3302C172.083 101.183 174.242 96.4767 174.128 95.939L173.248 95.5513L173.032 96.0415C172.848 95.8629 171.445 95.1089 167.308 93.5214C162.46 90.802 157.004 94.8371 155.804 95.7718C154.844 96.5195 155.335 96.6381 155.7 96.604Z" fill="#090706"/>
<path d="M157.828 155.627L154.954 138.384C134.836 151.317 121.025 149.64 115.437 146.287L114.719 156.346C132.346 168.608 150.962 160.737 157.828 155.627Z" fill="#9A6245"/>
<path d="M107.773 83.3012L102.983 79.9482" stroke="#FCC32E" stroke-width="0.478992"/>
<path d="M179.143 94.7958L182.975 91.9219" stroke="#FCC32E" stroke-width="0.478992"/>
<path d="M210.038 93.1191C213.87 99.0267 223.737 112.039 227.761 115.871C231.784 119.703 231.353 126.728 230.635 129.762" stroke="black" stroke-width="0.383193"/>
<path d="M96.9959 22.9473C94.5211 23.6658 88.4219 26.0128 83.8236 29.6531C78.0757 34.2036 70.4119 34.2036 60.832 69.6489" stroke="black" stroke-width="0.431093"/>
<path d="M95.5594 25.3418C93.0846 26.0603 86.9854 28.4073 82.3871 32.0477C76.6392 36.5981 68.9753 36.5981 59.3955 72.0435" stroke="black" stroke-width="0.431093"/>
<path d="M97.7143 174.31C109.976 173.16 113.521 160.339 112.084 153.952C132.393 169.28 153.996 157.784 159.025 152.755C163.576 163.053 176.429 164.889 182.975 164.251C190.16 165.049 210.182 168.178 232.79 174.31C261.05 181.973 261.529 196.822 267.756 203.528C272.738 208.893 277.176 230.032 278.773 239.931L285 285.915H0C1.91597 277.452 6.89748 256.409 11.4958 239.931C13.0286 224.22 26.5042 209.116 33.0504 203.528C49.4958 194.267 85.4521 175.459 97.7143 174.31Z" fill="#3B1569"/>
<path d="M112.323 153.95C119.508 160.177 140.584 168.081 158.785 152.753" stroke="#F4F4F4" stroke-width="0.478992"/>
<path d="M95.3264 194.003C95.5442 193.591 96.0275 193.399 96.4692 193.547L96.5661 193.579C96.9178 193.696 97.1796 194.007 97.1544 194.377C97.0542 195.854 96.0889 197.548 95.5111 198.443C95.2688 198.818 94.7909 198.943 94.3828 198.761L93.9447 198.567C93.4083 198.328 93.2119 197.667 93.5216 197.169C94.4084 195.741 94.8487 194.905 95.3264 194.003Z" fill="#FCC431"/>
<path d="M174.839 224.181C175.057 223.769 175.54 223.577 175.982 223.724L176.079 223.757C176.43 223.874 176.692 224.185 176.667 224.555C176.567 226.031 175.602 227.726 175.024 228.62C174.781 228.995 174.304 229.12 173.896 228.939L173.457 228.744C172.921 228.506 172.725 227.845 173.034 227.346C173.921 225.919 174.361 225.083 174.839 224.181Z" fill="#FCC431"/>
<path d="M256.746 279.265C256.964 278.853 257.447 278.661 257.889 278.808L257.986 278.841C258.338 278.958 258.599 279.269 258.574 279.639C258.474 281.115 257.509 282.81 256.931 283.704C256.689 284.079 256.211 284.204 255.803 284.023L255.365 283.828C254.828 283.59 254.632 282.929 254.942 282.43C255.828 281.003 256.269 280.167 256.746 279.265Z" fill="#FCC431"/>
<path d="M134.124 214.121C134.342 213.709 134.825 213.518 135.267 213.665L135.364 213.697C135.716 213.814 135.977 214.125 135.952 214.495C135.852 215.972 134.887 217.667 134.309 218.561C134.067 218.936 133.589 219.061 133.181 218.879L132.743 218.685C132.206 218.446 132.01 217.785 132.319 217.287C133.206 215.859 133.647 215.023 134.124 214.121Z" fill="#FFC6C7"/>
<path d="M221.301 181.55C221.519 181.138 222.002 180.946 222.444 181.094L222.541 181.126C222.892 181.243 223.154 181.554 223.129 181.924C223.029 183.401 222.064 185.095 221.486 185.989C221.243 186.364 220.765 186.489 220.357 186.308L219.919 186.113C219.383 185.875 219.186 185.214 219.496 184.715C220.383 183.288 220.823 182.452 221.301 181.55Z" fill="#FFC6C7"/>
<path d="M128.376 177.239C128.594 176.828 129.077 176.636 129.519 176.783L129.616 176.815C129.968 176.933 130.229 177.243 130.204 177.613C130.104 179.09 129.139 180.785 128.561 181.679C128.319 182.054 127.841 182.179 127.433 181.998L126.994 181.803C126.458 181.564 126.262 180.904 126.571 180.405C127.458 178.977 127.899 178.142 128.376 177.239Z" fill="#B6E0D8"/>
<path d="M172.444 191.129C172.661 190.717 173.145 190.525 173.586 190.673L173.683 190.705C174.035 190.822 174.297 191.133 174.272 191.503C174.171 192.98 173.206 194.674 172.628 195.569C172.386 195.944 171.908 196.069 171.5 195.887L171.062 195.692C170.525 195.454 170.329 194.793 170.639 194.295C171.526 192.867 171.966 192.031 172.444 191.129Z" fill="#B6E0D8"/>
<path d="M205.973 224.181C206.191 223.769 206.674 223.577 207.116 223.724L207.213 223.757C207.564 223.874 207.826 224.185 207.801 224.555C207.701 226.031 206.735 227.726 206.158 228.62C205.915 228.995 205.437 229.12 205.029 228.939L204.591 228.744C204.055 228.506 203.858 227.845 204.168 227.346C205.055 225.919 205.495 225.083 205.973 224.181Z" fill="#B8E1D9"/>
<path d="M269.679 245.735C269.897 245.324 270.38 245.132 270.822 245.279L270.919 245.311C271.27 245.429 271.532 245.74 271.507 246.109C271.407 247.586 270.441 249.281 269.864 250.175C269.621 250.55 269.143 250.675 268.735 250.494L268.297 250.299C267.761 250.061 267.564 249.4 267.874 248.901C268.761 247.473 269.201 246.638 269.679 245.735Z" fill="#B8E1D9"/>
<path d="M251.956 216.516C252.174 216.105 252.657 215.913 253.099 216.06L253.196 216.093C253.548 216.21 253.809 216.521 253.784 216.891C253.684 218.367 252.719 220.062 252.141 220.956C251.899 221.331 251.421 221.456 251.013 221.275L250.575 221.08C250.038 220.842 249.842 220.181 250.151 219.682C251.038 218.255 251.479 217.419 251.956 216.516Z" fill="#CFDBFF"/>
<path d="M215.074 248.608C215.292 248.197 215.776 248.005 216.217 248.152L216.314 248.184C216.666 248.302 216.928 248.613 216.902 248.982C216.802 250.459 215.837 252.154 215.259 253.048C215.017 253.423 214.539 253.548 214.131 253.367L213.693 253.172C213.156 252.934 212.96 252.273 213.27 251.774C214.156 250.346 214.597 249.511 215.074 248.608Z" fill="#FFC8C9"/>
<path d="M81.4358 259.146C81.6535 258.735 82.1369 258.543 82.5786 258.69L82.6755 258.722C83.0271 258.84 83.2889 259.151 83.2638 259.521C83.1635 260.997 82.1983 262.692 81.6205 263.586C81.3782 263.961 80.9003 264.086 80.4922 263.905L80.0541 263.71C79.5176 263.472 79.3212 262.811 79.631 262.312C80.5178 260.884 80.9581 260.049 81.4358 259.146Z" fill="#FCC431"/>
<path d="M57.965 234.24C58.1828 233.829 58.6662 233.637 59.1079 233.784L59.2048 233.816C59.5564 233.933 59.8182 234.244 59.7931 234.614C59.6928 236.091 58.7276 237.786 58.1498 238.68C57.9074 239.055 57.4296 239.18 57.0215 238.999L56.5833 238.804C56.0469 238.565 55.8505 237.905 56.1603 237.406C57.0471 235.978 57.4874 235.143 57.965 234.24Z" fill="#CFDBFF"/>
<path d="M24.9143 250.524C25.1321 250.113 25.6154 249.921 26.0571 250.068L26.154 250.1C26.5057 250.218 26.7675 250.529 26.7423 250.898C26.642 252.375 25.6768 254.07 25.099 254.964C24.8567 255.339 24.3788 255.464 23.9707 255.283L23.5326 255.088C22.9961 254.85 22.7998 254.189 23.1095 253.69C23.9963 252.262 24.4366 251.427 24.9143 250.524Z" fill="#B7E0D8"/>
<path d="M47.9055 279.265C48.1233 278.853 48.6066 278.661 49.0483 278.808L49.1452 278.841C49.4969 278.958 49.7587 279.269 49.7335 279.639C49.6333 281.115 48.668 282.81 48.0902 283.704C47.8479 284.079 47.37 284.204 46.9619 284.023L46.5238 283.828C45.9874 283.59 45.791 282.929 46.1007 282.43C46.9875 281.003 47.4278 280.167 47.9055 279.265Z" fill="#FFC5C5"/>
<path d="M108.287 283.533C108.52 283.098 109.04 282.909 109.494 283.1L109.717 283.193C109.946 283.289 110.14 283.469 110.191 283.713C110.364 284.55 109.962 285.38 109.618 285.905C109.388 286.256 108.934 286.339 108.558 286.156L108.103 285.935C107.566 285.674 107.4 284.994 107.723 284.493C107.965 284.118 108.135 283.818 108.287 283.533Z" fill="#FFC5C5"/>
<path d="M98.6789 224.659C98.8967 224.248 99.3801 224.056 99.8218 224.203L99.9187 224.235C100.27 224.352 100.532 224.663 100.507 225.033C100.407 226.51 99.4415 228.205 98.8637 229.099C98.6213 229.474 98.1434 229.599 97.7354 229.417L97.2972 229.223C96.7608 228.984 96.5644 228.323 96.8741 227.825C97.761 226.397 98.2013 225.562 98.6789 224.659Z" fill="#B7E1D8"/>
<path d="M124.544 249.567C124.762 249.156 125.245 248.964 125.687 249.111L125.784 249.143C126.136 249.261 126.397 249.572 126.372 249.941C126.272 251.418 125.307 253.113 124.729 254.007C124.487 254.382 124.009 254.507 123.601 254.326L123.162 254.131C122.626 253.893 122.43 253.232 122.739 252.733C123.626 251.305 124.067 250.47 124.544 249.567Z" fill="#B7E1D8"/>
<path d="M154.721 263.457C154.939 263.045 155.422 262.853 155.864 263.001L155.961 263.033C156.312 263.15 156.574 263.461 156.549 263.831C156.449 265.308 155.483 267.002 154.906 267.897C154.663 268.272 154.185 268.397 153.777 268.215L153.339 268.021C152.803 267.782 152.606 267.121 152.916 266.623C153.803 265.195 154.243 264.359 154.721 263.457Z" fill="#D4DEFF"/>
<path d="M196.872 278.306C197.09 277.894 197.573 277.702 198.015 277.849L198.112 277.882C198.464 277.999 198.725 278.31 198.7 278.68C198.6 280.156 197.635 281.851 197.057 282.745C196.815 283.12 196.337 283.245 195.929 283.064L195.491 282.869C194.954 282.631 194.758 281.97 195.067 281.471C195.954 280.044 196.395 279.208 196.872 278.306Z" fill="#B9E1DA"/>
<path d="M62.7551 199.272C62.9729 198.861 63.4563 198.669 63.8979 198.816L63.9948 198.848C64.3465 198.966 64.6083 199.277 64.5832 199.647C64.4829 201.123 63.5176 202.818 62.9398 203.712C62.6975 204.087 62.2196 204.212 61.8116 204.031L61.3734 203.836C60.837 203.598 60.6406 202.937 60.9503 202.438C61.8371 201.01 62.2774 200.175 62.7551 199.272Z" fill="#B8E1D9"/>
<path d="M56.5214 266.274L52.6895 285.913H56.5214V266.274Z" fill="#0E0C0B" stroke="black" stroke-width="0.478992"/>
<path d="M236.622 266.274L240.454 285.913H236.622V266.274Z" fill="#0E0C0B" stroke="black" stroke-width="0.478992"/>
</svg>
