<svg width="135" height="135" viewBox="0 0 135 135" fill="none" xmlns="http://www.w3.org/2000/svg">
<rect x="0.685014" y="50.6138" width="97.9686" height="96.8112" rx="4.5" transform="rotate(-30.64 0.685014 50.6138)" stroke="#B8B8B8" stroke-dasharray="11.58 11.58"/>
<ellipse cx="59" cy="61.5" rx="21" ry="20.5" fill="#76AFFF"/>
<path d="M51.0869 63.2217H46V48.7559H55.2994V56.2272" stroke="#231E1F" stroke-linecap="round" stroke-linejoin="round"/>
<path d="M58.6377 55.9889V42H67.9371V63.1423H66.5065" stroke="#231E1F" stroke-linecap="round" stroke-linejoin="round"/>
<path d="M79.1445 77.2109L79.224 77.6878" stroke="#231E1F" stroke-width="0.31793" stroke-linecap="round" stroke-linejoin="round"/>
<path d="M72.3079 78.641H80.574C81.2735 78.2595 80.8655 77.8991 80.574 77.7667H71.9899V77.1308C74.7453 77.1573 80.3197 77.2103 80.574 77.2103C80.8284 77.2103 80.9449 76.9983 80.9714 76.8924V74.6668C80.7807 73.7766 80.0971 73.5011 79.7792 73.4746H72.3079C71.5448 73.4746 71.1421 74.3224 71.0361 74.7463V77.6872C71.0997 78.5138 71.9104 78.6675 72.3079 78.641Z" fill="#231E1F"/>
<path d="M72.3086 85.6357H78.5082" stroke="#231E1F" stroke-linecap="round" stroke-linejoin="round"/>
<path d="M49.498 70.4541H88.7624" stroke="#231E1F" stroke-width="1.58965" stroke-linecap="round" stroke-linejoin="round"/>
<path d="M86.2969 70.8516V89.8479" stroke="#231E1F" stroke-linecap="round" stroke-linejoin="round"/>
<path d="M72.2285 86.9873H88.6814" stroke="#231E1F" stroke-linecap="round" stroke-linejoin="round"/>
<path d="M72.627 78.8008L71.5938 91.0411" stroke="#231E1F" stroke-linecap="round" stroke-linejoin="round"/>
<path d="M79.3828 78.7207L80.4956 91.2789" stroke="#231E1F" stroke-linecap="round" stroke-linejoin="round"/>
<path d="M49.5762 83.7278V71.249" stroke="#231E1F" stroke-linecap="round" stroke-linejoin="round"/>
<path d="M63.5664 89.6893V68.9443" stroke="#231E1F" stroke-linecap="round" stroke-linejoin="round"/>
<path d="M63.9639 86.8281H70.4019" stroke="#231E1F" stroke-linecap="round" stroke-linejoin="round"/>
<path d="M49.8154 80.707H63.4069" stroke="#231E1F" stroke-linecap="round" stroke-linejoin="round"/>
<path d="M48.0659 70.2951H46.9531V68.626H88.9993" stroke="#231E1F" stroke-linecap="round" stroke-linejoin="round"/>
<path d="M64.5195 63.3809C64.5195 63.9967 64.3694 64.6065 64.0778 65.1754C63.7862 65.7444 63.3588 66.2614 62.82 66.6968C62.2813 67.1323 61.6416 67.4777 60.9377 67.7134C60.2337 67.949 59.4792 68.0703 58.7173 68.0703C57.9553 68.0703 57.2008 67.949 56.4968 67.7134C55.7929 67.4777 55.1533 67.1323 54.6145 66.6968C54.0757 66.2614 53.6483 65.7444 53.3567 65.1754C53.0651 64.6065 52.915 63.9967 52.915 63.3809" stroke="black" stroke-linecap="round" stroke-linejoin="round"/>
</svg>
