<svg width="117" height="117" viewBox="0 0 117 117" fill="none" xmlns="http://www.w3.org/2000/svg">
<rect x="0.755637" y="20.7687" width="97.9687" height="96.8111" rx="4.5" transform="rotate(-11.64 0.755637 20.7687)" stroke="#B8B8B8" stroke-dasharray="11.58 11.58"/>
<ellipse cx="55" cy="50.5" rx="21" ry="20.5" fill="#76AFFF"/>
<path d="M47.0273 48.0952L50.896 44.2266" stroke="black" stroke-width="1.28956"/>
<path d="M50.8955 51.9634L54.7642 48.0947" stroke="black" stroke-width="1.28956"/>
<path d="M66.3701 66.149L70.2388 62.2803" stroke="black" stroke-width="1.28956"/>
<path d="M70.2393 70.0171L74.1079 66.1484" stroke="black" stroke-width="1.28956"/>
<path d="M50.2506 59.7008L38.6445 48.0948L46.3819 40.3574L57.9879 51.3187" stroke="black" stroke-width="1.28956"/>
<path d="M58.6328 68.0836L69.5941 79.6896L77.9762 70.6627L67.015 59.0566" stroke="black" stroke-width="1.28956"/>
<path d="M67.6602 42.2931C71.5288 37.779 83.1349 39.7129 75.3975 50.03" stroke="black" stroke-width="1.28956"/>
<path d="M43.803 66.1484L38 80.3336L52.1852 74.5306" stroke="black" stroke-width="1.28956"/>
<path d="M67.6596 42.292L43.8027 66.1489L52.1849 74.531L75.397 50.0294L67.6596 42.292Z" stroke="black" stroke-width="1.28956"/>
</svg>
