<svg width="133" height="133" viewBox="0 0 133 133" fill="none" xmlns="http://www.w3.org/2000/svg">
<ellipse cx="69.6035" cy="58.1138" rx="20.6054" ry="20.1148" fill="#76AFFF"/>
<path d="M41.6118 80.769L61.998 45.459L82.3843 80.769H41.6118Z" stroke="black" stroke-width="1.46"/>
<path d="M82.748 52.499L83.478 52.4927C83.4746 52.092 83.1488 51.769 82.748 51.769V52.499ZM66.498 51.769C66.0949 51.769 65.768 52.0959 65.768 52.499C65.768 52.9022 66.0949 53.229 66.498 53.229V51.769ZM83.728 81.4927L83.478 52.4927L82.0181 52.5053L82.2681 81.5053L83.728 81.4927ZM82.748 51.769H66.498V53.229H82.748V51.769Z" fill="black"/>
<rect x="0.843964" y="45.5831" width="97.9686" height="96.8111" rx="4.5" transform="rotate(-26.64 0.843964 45.5831)" stroke="#B8B8B8" stroke-dasharray="11.58 11.58"/>
</svg>
